<svg xmlns="http://www.w3.org/2000/svg" xmlns:xlink="http://www.w3.org/1999/xlink" width="100" zoomAndPan="magnify" viewBox="0 0 75 74.999997" height="100" preserveAspectRatio="xMidYMid meet" version="1.0"><defs><g/><clipPath id="97c512881c"><path d="M 0 0 L 75 0 L 75 54.75 L 0 54.75 Z M 0 0 " clip-rule="nonzero"/></clipPath></defs><g clip-path="url(#97c512881c)"><path fill="#0e92e4" d="M 34.371094 18.125 C 34.371094 8.121094 42.492188 0 52.492188 0 L 72.621094 0 L 72.621094 4.585938 L 52.492188 4.585938 C 45.027344 4.585938 38.957031 10.65625 38.957031 18.125 C 38.957031 25.589844 45.027344 31.660156 52.492188 31.660156 L 57.847656 31.660156 L 57.847656 36.246094 L 52.492188 36.246094 C 42.492188 36.246094 34.371094 28.109375 34.371094 18.125 Z M 52.492188 11.597656 L 72.621094 11.597656 L 72.621094 7.011719 L 52.492188 7.011719 C 46.375 7.011719 41.382812 11.988281 41.382812 18.125 C 41.382812 24.242188 46.375 29.234375 52.492188 29.234375 L 56.578125 29.234375 L 57.109375 29.28125 C 60.648438 29.578125 63.417969 32.601562 63.417969 36.152344 C 63.417969 39.957031 60.320312 43.039062 56.53125 43.039062 L 14.523438 43.039062 L 14.523438 47.625 L 56.5 47.625 C 62.824219 47.625 67.972656 42.476562 67.972656 36.152344 C 67.972656 30.441406 63.699219 25.589844 58.113281 24.789062 L 58.113281 24.679688 L 56.65625 24.664062 L 55.5 24.585938 L 55.5 24.664062 L 52.476562 24.664062 C 48.878906 24.664062 45.953125 21.738281 45.953125 18.140625 C 45.953125 14.539062 48.894531 11.597656 52.492188 11.597656 Z M 22.085938 24.804688 L 0.171875 24.804688 L 0.171875 29.234375 L 0 29.234375 L 0 54.808594 L 4.585938 54.808594 L 4.585938 29.234375 L 22.085938 29.234375 Z M 7.011719 19.890625 L 11.597656 19.890625 L 11.597656 11.597656 L 33.023438 11.597656 L 33.023438 7.011719 L 7.011719 7.011719 Z M 4.585938 4.585938 L 33.023438 4.585938 L 33.023438 0 L 0 0 L 0 19.890625 L 4.585938 19.890625 Z M 57.3125 17.667969 L 55.5 17.589844 L 55.5 22.175781 L 57.15625 22.253906 C 64.589844 22.597656 70.398438 28.703125 70.398438 36.136719 C 70.398438 43.804688 64.167969 50.035156 56.5 50.035156 L 11.597656 50.035156 L 11.597656 36.246094 L 22.085938 36.246094 L 22.085938 31.660156 L 7.011719 31.660156 L 7.011719 50.035156 L 6.964844 50.035156 L 6.964844 54.621094 L 7.011719 54.621094 L 7.011719 54.808594 L 11.597656 54.808594 L 11.597656 54.621094 L 56.5 54.621094 C 66.6875 54.621094 74.984375 46.324219 74.984375 36.136719 C 75 26.214844 67.234375 18.109375 57.3125 17.667969 Z M 57.3125 17.667969 " fill-opacity="1" fill-rule="nonzero"/></g><g fill="#0e92e4" fill-opacity="1"><g transform="translate(13.887328, 62.341062)"><g><path d="M 1.953125 -2.625 L 1.953125 -0.984375 L 4.796875 -0.984375 L 4.796875 0 L 0.78125 0 L 0.78125 -5.96875 L 4.734375 -5.96875 L 4.734375 -4.984375 L 1.953125 -4.984375 L 1.953125 -3.578125 L 4.390625 -3.578125 L 4.390625 -2.625 Z M 1.953125 -2.625 "/></g></g><g transform="translate(19.021554, 62.341062)"><g><path d="M 1.921875 0 L 0.78125 0 L 0.78125 -5.96875 L 2.125 -5.96875 L 4.515625 -2.125 L 4.625 -2.140625 L 4.625 -5.96875 L 5.765625 -5.96875 L 5.765625 0 L 4.5625 0 L 2.015625 -4.109375 L 1.921875 -4.09375 Z M 1.921875 0 "/></g></g><g transform="translate(25.56902, 62.341062)"><g><path d="M 1.921875 0 L 0.78125 0 L 0.78125 -5.96875 L 2.125 -5.96875 L 4.515625 -2.125 L 4.625 -2.140625 L 4.625 -5.96875 L 5.765625 -5.96875 L 5.765625 0 L 4.5625 0 L 2.015625 -4.109375 L 1.921875 -4.09375 Z M 1.921875 0 "/></g></g><g transform="translate(32.116486, 62.341062)"><g><path d="M 5.734375 0 L 4.484375 0 L 4.03125 -1.375 L 1.75 -1.375 L 1.296875 0 L 0.09375 0 L 2.15625 -5.96875 L 3.671875 -5.96875 Z M 2.84375 -4.71875 L 2.0625 -2.375 L 3.703125 -2.375 L 2.9375 -4.71875 Z M 2.84375 -4.71875 "/></g></g><g transform="translate(37.93691, 62.341062)"><g><path d="M 3.265625 0.078125 C 2.710938 0.078125 2.222656 -0.03125 1.796875 -0.25 C 1.378906 -0.476562 1.050781 -0.820312 0.8125 -1.28125 C 0.582031 -1.738281 0.46875 -2.304688 0.46875 -2.984375 C 0.46875 -3.648438 0.582031 -4.210938 0.8125 -4.671875 C 1.050781 -5.140625 1.378906 -5.484375 1.796875 -5.703125 C 2.222656 -5.929688 2.710938 -6.046875 3.265625 -6.046875 C 3.835938 -6.046875 4.320312 -5.929688 4.71875 -5.703125 C 5.125 -5.484375 5.410156 -5.144531 5.578125 -4.6875 L 4.71875 -4.15625 L 4.625 -4.171875 C 4.488281 -4.472656 4.3125 -4.691406 4.09375 -4.828125 C 3.875 -4.960938 3.597656 -5.03125 3.265625 -5.03125 C 2.765625 -5.03125 2.375 -4.863281 2.09375 -4.53125 C 1.820312 -4.207031 1.6875 -3.691406 1.6875 -2.984375 C 1.6875 -2.273438 1.820312 -1.753906 2.09375 -1.421875 C 2.375 -1.097656 2.765625 -0.9375 3.265625 -0.9375 C 4.035156 -0.9375 4.507812 -1.3125 4.6875 -2.0625 L 4.78125 -2.0625 L 5.65625 -1.609375 C 5.488281 -1.046875 5.207031 -0.625 4.8125 -0.34375 C 4.425781 -0.0625 3.910156 0.078125 3.265625 0.078125 Z M 3.265625 0.078125 "/></g></g><g transform="translate(43.794094, 62.341062)"><g><path d="M 4.625 -3.71875 L 4.625 -5.96875 L 5.796875 -5.96875 L 5.796875 0 L 4.625 0 L 4.625 -2.71875 L 1.953125 -2.71875 L 1.953125 0 L 0.78125 0 L 0.78125 -5.96875 L 1.953125 -5.96875 L 1.953125 -3.71875 Z M 4.625 -3.71875 "/></g></g><g transform="translate(50.382405, 62.341062)"><g><path d="M 1.953125 -2.625 L 1.953125 -0.984375 L 4.796875 -0.984375 L 4.796875 0 L 0.78125 0 L 0.78125 -5.96875 L 4.734375 -5.96875 L 4.734375 -4.984375 L 1.953125 -4.984375 L 1.953125 -3.578125 L 4.390625 -3.578125 L 4.390625 -2.625 Z M 1.953125 -2.625 "/></g></g><g transform="translate(55.516631, 62.341062)"><g><path d="M 0.78125 0 L 0.78125 -5.96875 L 3.171875 -5.96875 C 3.785156 -5.96875 4.25 -5.820312 4.5625 -5.53125 C 4.882812 -5.25 5.046875 -4.859375 5.046875 -4.359375 C 5.046875 -4.003906 4.953125 -3.707031 4.765625 -3.46875 C 4.578125 -3.238281 4.300781 -3.0625 3.9375 -2.9375 L 3.9375 -2.859375 C 4.125 -2.773438 4.273438 -2.648438 4.390625 -2.484375 C 4.515625 -2.328125 4.628906 -2.09375 4.734375 -1.78125 L 5.328125 0 L 4.109375 0 L 3.53125 -1.78125 C 3.46875 -1.957031 3.398438 -2.09375 3.328125 -2.1875 C 3.253906 -2.289062 3.15625 -2.363281 3.03125 -2.40625 C 2.914062 -2.457031 2.769531 -2.484375 2.59375 -2.484375 L 1.953125 -2.484375 L 1.953125 0 Z M 3.03125 -3.421875 C 3.601562 -3.421875 3.890625 -3.6875 3.890625 -4.21875 C 3.890625 -4.757812 3.601562 -5.03125 3.03125 -5.03125 L 1.953125 -5.03125 L 1.953125 -3.421875 Z M 3.03125 -3.421875 "/></g></g></g><g fill="#0e92e4" fill-opacity="1"><g transform="translate(23.842635, 73.494491)"><g><path d="M 2.640625 0.078125 C 2.234375 0.078125 1.867188 0.03125 1.546875 -0.0625 C 1.222656 -0.164062 0.953125 -0.300781 0.734375 -0.46875 C 0.515625 -0.632812 0.347656 -0.816406 0.234375 -1.015625 L 0.890625 -1.8125 L 0.984375 -1.8125 C 1.171875 -1.539062 1.398438 -1.328125 1.671875 -1.171875 C 1.953125 -1.015625 2.273438 -0.9375 2.640625 -0.9375 C 2.960938 -0.9375 3.203125 -1 3.359375 -1.125 C 3.515625 -1.257812 3.59375 -1.445312 3.59375 -1.6875 C 3.59375 -1.820312 3.566406 -1.9375 3.515625 -2.03125 C 3.460938 -2.132812 3.375 -2.21875 3.25 -2.28125 C 3.132812 -2.351562 2.976562 -2.414062 2.78125 -2.46875 L 2.015625 -2.640625 C 1.472656 -2.765625 1.070312 -2.96875 0.8125 -3.25 C 0.550781 -3.53125 0.421875 -3.898438 0.421875 -4.359375 C 0.421875 -4.691406 0.503906 -4.984375 0.671875 -5.234375 C 0.835938 -5.492188 1.082031 -5.691406 1.40625 -5.828125 C 1.726562 -5.972656 2.113281 -6.046875 2.5625 -6.046875 C 3.019531 -6.046875 3.410156 -5.984375 3.734375 -5.859375 C 4.066406 -5.742188 4.347656 -5.5625 4.578125 -5.3125 L 4 -4.515625 L 3.890625 -4.515625 C 3.722656 -4.691406 3.53125 -4.820312 3.3125 -4.90625 C 3.09375 -5 2.84375 -5.046875 2.5625 -5.046875 C 2.238281 -5.046875 1.992188 -4.988281 1.828125 -4.875 C 1.660156 -4.757812 1.578125 -4.601562 1.578125 -4.40625 C 1.578125 -4.21875 1.632812 -4.066406 1.75 -3.953125 C 1.875 -3.835938 2.082031 -3.75 2.375 -3.6875 L 3.15625 -3.53125 C 3.726562 -3.40625 4.144531 -3.195312 4.40625 -2.90625 C 4.664062 -2.613281 4.796875 -2.234375 4.796875 -1.765625 C 4.796875 -1.390625 4.71875 -1.0625 4.5625 -0.78125 C 4.40625 -0.507812 4.160156 -0.296875 3.828125 -0.140625 C 3.503906 0.00390625 3.109375 0.078125 2.640625 0.078125 Z M 2.640625 0.078125 "/></g></g><g transform="translate(28.972777, 73.494491)"><g><path d="M 4.78125 -5.96875 L 4.78125 -4.96875 L 3.0625 -4.96875 L 3.0625 0 L 1.890625 0 L 1.890625 -4.96875 L 0.15625 -4.96875 L 0.15625 -5.96875 Z M 4.78125 -5.96875 "/></g></g><g transform="translate(33.9232, 73.494491)"><g><path d="M 3.25 0.078125 C 2.707031 0.078125 2.222656 -0.03125 1.796875 -0.25 C 1.378906 -0.46875 1.050781 -0.804688 0.8125 -1.265625 C 0.582031 -1.722656 0.46875 -2.296875 0.46875 -2.984375 C 0.46875 -3.671875 0.582031 -4.242188 0.8125 -4.703125 C 1.050781 -5.160156 1.378906 -5.5 1.796875 -5.71875 C 2.222656 -5.9375 2.707031 -6.046875 3.25 -6.046875 C 3.800781 -6.046875 4.285156 -5.9375 4.703125 -5.71875 C 5.117188 -5.5 5.441406 -5.160156 5.671875 -4.703125 C 5.910156 -4.242188 6.03125 -3.671875 6.03125 -2.984375 C 6.03125 -2.296875 5.910156 -1.722656 5.671875 -1.265625 C 5.441406 -0.804688 5.117188 -0.46875 4.703125 -0.25 C 4.285156 -0.03125 3.800781 0.078125 3.25 0.078125 Z M 3.25 -0.9375 C 3.757812 -0.9375 4.144531 -1.097656 4.40625 -1.421875 C 4.675781 -1.753906 4.8125 -2.273438 4.8125 -2.984375 C 4.8125 -3.691406 4.675781 -4.207031 4.40625 -4.53125 C 4.144531 -4.863281 3.757812 -5.03125 3.25 -5.03125 C 2.738281 -5.03125 2.347656 -4.863281 2.078125 -4.53125 C 1.816406 -4.207031 1.6875 -3.691406 1.6875 -2.984375 C 1.6875 -2.273438 1.816406 -1.753906 2.078125 -1.421875 C 2.347656 -1.097656 2.738281 -0.9375 3.25 -0.9375 Z M 3.25 -0.9375 "/></g></g><g transform="translate(40.429821, 73.494491)"><g><path d="M 0.78125 0 L 0.78125 -5.96875 L 3.171875 -5.96875 C 3.785156 -5.96875 4.25 -5.820312 4.5625 -5.53125 C 4.882812 -5.25 5.046875 -4.859375 5.046875 -4.359375 C 5.046875 -4.003906 4.953125 -3.707031 4.765625 -3.46875 C 4.578125 -3.238281 4.300781 -3.0625 3.9375 -2.9375 L 3.9375 -2.859375 C 4.125 -2.773438 4.273438 -2.648438 4.390625 -2.484375 C 4.515625 -2.328125 4.628906 -2.09375 4.734375 -1.78125 L 5.328125 0 L 4.109375 0 L 3.53125 -1.78125 C 3.46875 -1.957031 3.398438 -2.09375 3.328125 -2.1875 C 3.253906 -2.289062 3.15625 -2.363281 3.03125 -2.40625 C 2.914062 -2.457031 2.769531 -2.484375 2.59375 -2.484375 L 1.953125 -2.484375 L 1.953125 0 Z M 3.03125 -3.421875 C 3.601562 -3.421875 3.890625 -3.6875 3.890625 -4.21875 C 3.890625 -4.757812 3.601562 -5.03125 3.03125 -5.03125 L 1.953125 -5.03125 L 1.953125 -3.421875 Z M 3.03125 -3.421875 "/></g></g><g transform="translate(46.013343, 73.494491)"><g><path d="M 1.953125 -2.625 L 1.953125 -0.984375 L 4.796875 -0.984375 L 4.796875 0 L 0.78125 0 L 0.78125 -5.96875 L 4.734375 -5.96875 L 4.734375 -4.984375 L 1.953125 -4.984375 L 1.953125 -3.578125 L 4.390625 -3.578125 L 4.390625 -2.625 Z M 1.953125 -2.625 "/></g></g></g></svg>